<?xml version="1.0" encoding="UTF-8" standalone="no"?>
<!-- Created with Inkscape (http://www.inkscape.org/) -->

<svg
   width="128.0px"
   height="128.0px"
   viewBox="0 0 128.0 128.0"
   version="1.1"
   id="SVGRoot"
   sodipodi:docname="SlimeOrb.svg"
   xml:space="preserve"
   inkscape:version="1.2.2 (732a01da63, 2022-12-09)"
   xmlns:inkscape="http://www.inkscape.org/namespaces/inkscape"
   xmlns:sodipodi="http://sodipodi.sourceforge.net/DTD/sodipodi-0.dtd"
   xmlns="http://www.w3.org/2000/svg"
   xmlns:svg="http://www.w3.org/2000/svg"><sodipodi:namedview
     id="namedview5324"
     pagecolor="#505050"
     bordercolor="#eeeeee"
     borderopacity="1"
     inkscape:showpageshadow="0"
     inkscape:pageopacity="0"
     inkscape:pagecheckerboard="0"
     inkscape:deskcolor="#505050"
     inkscape:document-units="px"
     showgrid="true"
     inkscape:zoom="2.8284271"
     inkscape:cx="-30.582368"
     inkscape:cy="102.53048"
     inkscape:window-width="1920"
     inkscape:window-height="1009"
     inkscape:window-x="1912"
     inkscape:window-y="-8"
     inkscape:window-maximized="1"
     inkscape:current-layer="layer1"><inkscape:grid
       type="xygrid"
       id="grid5447" /></sodipodi:namedview><defs
     id="defs5319"><style
       id="style1294">

      .cls-3 {
        fill: url(#linear-gradient-1);
      }

      .cls-4 {
        fill: #fc9502;
      }

      .cls-5 {
        fill: #fce202;
      }
    </style><linearGradient
       id="linear-gradient-1"
       gradientUnits="userSpaceOnUse"
       x1="94.141"
       y1="255"
       x2="94.141"
       y2="0.188"
       gradientTransform="translate(-1.280071,0.47343624)"><stop
         offset="0"
         stop-color="#ff4c0d"
         id="stop1296" /><stop
         offset="1"
         stop-color="#fc9502"
         id="stop1298" /></linearGradient><filter
       style="color-interpolation-filters:sRGB;"
       inkscape:label="Cross Blur"
       id="filter6033"
       x="-0.023484329"
       y="-0.023484329"
       width="1.0469687"
       height="1.0469687"><feColorMatrix
         in="SourceGraphic"
         values="1 0 0 0 0 0 1 0 0 0 0 0 1 0 0 -0.2125 -0.7154 -0.0721 1 0 "
         result="colormatrix"
         id="feColorMatrix6023" /><feComposite
         in="SourceGraphic"
         in2="colormatrix"
         operator="arithmetic"
         k2="1"
         k3="0"
         k4="0"
         result="composite"
         id="feComposite6025" /><feGaussianBlur
         stdDeviation="5 0.01"
         result="blur1"
         id="feGaussianBlur6027" /><feGaussianBlur
         in="composite"
         stdDeviation="0.01 5"
         result="blur2"
         id="feGaussianBlur6029" /><feBlend
         in="blur2"
         in2="blur1"
         mode="darken"
         result="blend"
         id="feBlend6031" /></filter><clipPath
       clipPathUnits="userSpaceOnUse"
       id="clipPath1075"><ellipse
         style="fill:#f9f9f9;fill-opacity:1;stroke:none;stroke-width:3.79318;stroke-dasharray:none;stroke-opacity:1"
         id="ellipse1077"
         cx="63.945835"
         cy="64.001526"
         rx="60.017738"
         ry="60.089058" /></clipPath></defs><g
     inkscape:label="Base"
     inkscape:groupmode="layer"
     id="layer1"><circle
       style="fill:#4ed42c;fill-opacity:0.79944289;stroke:#000000;stroke-width:3.91869;stroke-dasharray:none;stroke-opacity:1"
       id="path357"
       cx="64"
       cy="64"
       r="62.040653" /><path
       fill="#000000"
       d="m 85.493787,1.25e-6 c -4.044576,0 -7.271746,3.22534195 -7.271746,7.26885855 0,4.0435092 3.22771,7.2688582 7.272017,7.2688582 4.044305,0 7.271745,-3.226158 7.271745,-7.2688582 0,-4.0426999 -3.22744,-7.26885855 -7.271745,-7.26885855 z M 22.737085,0.05947655 C 30.74155,10.25616 36.851976,19.60519 40.721762,27.359539 c 2.196544,4.401891 3.715554,8.301512 4.515111,11.681018 0.799555,3.379511 0.976783,6.277588 -0.101463,8.782134 -1.078517,2.50373 -3.842731,4.075971 -6.738981,4.022954 -2.896521,-0.05304 -6.128561,-1.18465 -10.070856,-3.288086 C 21.268127,44.791812 11.931341,37.714992 0,26.607643 v 23.59031 c 4.658516,0.127118 9.019395,0.506859 13.06343,1.107024 1.756044,-1.647152 4.110871,-2.662495 6.688651,-2.662495 4.334641,0 8.047488,2.868596 9.326237,6.795533 0.09199,0.03648 0.187778,0.07222 0.27869,0.109545 8.046407,3.285386 13.578886,7.810336 14.907417,13.599181 0.664533,2.89483 0.0763,5.992784 -1.648624,8.731554 -1.724659,2.738501 -4.495903,5.191926 -8.303182,7.420862 C 27.038165,89.557962 15.835761,93.039436 0,95.281084 v 32.718646 h 5.96973 c 8.212808,-12.99982 15.932354,-22.25553 22.720308,-28.424671 6.998465,-6.361437 12.947089,-9.578939 17.976019,-10.007363 2.650025,-0.22557 5.34389,0.475216 7.356432,2.298992 2.012009,1.823771 3.249626,4.549831 3.79619,7.978831 1.007358,6.316541 -0.165862,15.373461 -4.126291,28.154211 h 8.151388 c -0.307915,-7.06682 0.286809,-13.34359 1.615341,-18.17228 0.749496,-2.72524 1.698136,-5.0153 2.95064,-6.8123 1.252767,-1.79701 2.95253,-3.260771 5.166385,-3.473911 2.269324,-0.21799 4.133059,1.000741 5.732433,2.569461 1.599651,1.56981 3.099184,3.69569 4.625239,6.33114 2.842133,4.90766 5.722694,11.65776 8.489338,19.55816 H 100.57788 C 92.090444,116.76311 86.14696,106.77089 82.931696,98.882389 81.13074,94.464003 80.143677,90.72071 80.175061,87.51457 c 0.01565,-1.603886 0.294118,-3.10607 1.022784,-4.43786 0.729472,-1.331785 1.977099,-2.415829 3.433616,-2.941349 2.272843,-0.819524 4.797321,-0.500369 7.668677,0.47332 2.871356,0.973688 6.169685,2.677644 10.019992,5.17299 6.7636,4.382951 15.34196,11.409198 25.6796,21.188829 V 81.461739 c -1.35829,-0.05408 -2.68141,-0.129824 -3.98288,-0.21096 -2.62893,3.502572 -6.81421,5.781 -11.50762,5.781 -6.37885,0 -11.81338,-4.207686 -13.681163,-9.981657 C 97.807991,76.72015 96.826886,76.373135 95.894204,76.010441 87.694113,72.821609 82.425717,68.154121 81.942473,62.115362 81.459761,56.076865 85.774916,50.228246 93.704434,44.729606 101.33253,39.439236 112.6759,34.272194 128,29.507071 V 0.05947885 H 115.35866 C 108.46384,14.472771 101.46917,25.486818 95.031877,33.048051 88.375159,40.867305 82.472529,45.333837 76.776081,45.422007 73.928539,45.466114 71.209509,43.981487 69.614734,41.525363 68.019689,39.069501 67.28399,35.832796 67.153843,31.780362 66.913028,24.285122 68.855769,13.788756 73.436628,0.05974825 H 63.982683 C 64.616918,10.292402 64.44537,18.669911 63.49294,24.815786 c -0.519506,3.350029 -1.239238,6.066615 -2.29178,8.215495 -1.052541,2.148602 -2.574807,3.948845 -4.836561,4.462737 C 54.102583,38.007912 51.89197,36.959305 50.090473,35.313227 48.289246,33.667423 46.595438,31.297572 44.831277,28.095218 41.472346,21.998032 37.893698,12.739879 34.160286,0.05947885 H 22.737354 Z M 60.000337,49.28485 c 5.484047,0.03379 11.529264,6.8691 14.095143,16.37149 2.831583,10.485275 0.356078,20.252184 -5.521112,21.814953 -5.876924,1.56277 -12.929771,-5.675257 -15.761083,-16.160532 -2.831312,-10.485273 -0.364195,-20.252176 5.513,-21.814952 0.550892,-0.146596 1.106654,-0.214749 1.674323,-0.21096 z m -40.248256,4.411347 c -2.648128,0 -4.743742,2.095053 -4.743742,4.741866 0,2.647075 2.095614,4.733203 4.743202,4.733203 2.648404,0 4.744019,-2.086129 4.744019,-4.733204 0,-2.646813 -2.095885,-4.741326 -4.743749,-4.741326 z m 92.756869,9.635734 c -5.17937,0 -9.3181,4.14548 -9.3181,9.323066 0,5.176775 4.13873,9.322526 9.3181,9.322526 5.17938,0 9.32678,-4.145473 9.32678,-9.323065 0,-5.176777 -4.1474,-9.322527 -9.32678,-9.322527 z M 6.164544,67.913132 c -3.347029,0 -6.004093,2.656008 -6.004093,6.000898 0,3.345702 2.657064,6.001711 6.004093,6.001711 3.346221,0 6.003006,-2.656009 6.003006,-6.001711 0,-3.34489 -2.657055,-6.000629 -6.003275,-6.000629 z m 98.125926,41.381778 c -3.08457,0 -5.530049,2.44396 -5.530049,5.52758 0,3.08415 2.445479,5.5365 5.530049,5.5365 3.08457,0 5.53004,-2.45316 5.53004,-5.5365 0,-3.08281 -2.44601,-5.5273 -5.53004,-5.5273 z"
       id="path306"
       style="fill:#50cc16;fill-opacity:0.89972144;stroke-width:0.270522"
       clip-path="url(#clipPath1075)" /></g><g
     inkscape:groupmode="layer"
     id="layer3"
     inkscape:label="Face"><g
       aria-label="-.-"
       id="text1154"
       style="font-size:89.4211px;fill:#f9f9f9;stroke-width:16.7664"><path
         d="M 44.548294,55.704101 H 17.302803 v -7.902939 h 27.245491 z"
         style="fill:#010101"
         id="path2006" /><path
         d="M 72.710698,80.198845 H 62.275326 V 67.754991 h 10.435372 z"
         style="fill:#010101"
         id="path2008" /><path
         d="M 110.6972,55.704101 H 83.451706 V 47.801162 H 110.6972 Z"
         style="fill:#010101"
         id="path2010" /></g></g></svg>
