<?xml version="1.0" encoding="UTF-8" standalone="no"?>
<!-- Created with Inkscape (http://www.inkscape.org/) -->

<svg
   width="128.0px"
   height="128.0px"
   viewBox="0 0 128.0 128.0"
   version="1.1"
   id="SVGRoot"
   sodipodi:docname="PufferOrb.svg"
   xml:space="preserve"
   inkscape:version="1.2.2 (732a01da63, 2022-12-09)"
   xmlns:inkscape="http://www.inkscape.org/namespaces/inkscape"
   xmlns:sodipodi="http://sodipodi.sourceforge.net/DTD/sodipodi-0.dtd"
   xmlns="http://www.w3.org/2000/svg"
   xmlns:svg="http://www.w3.org/2000/svg"><sodipodi:namedview
     id="namedview5324"
     pagecolor="#505050"
     bordercolor="#eeeeee"
     borderopacity="1"
     inkscape:showpageshadow="0"
     inkscape:pageopacity="0"
     inkscape:pagecheckerboard="0"
     inkscape:deskcolor="#505050"
     inkscape:document-units="px"
     showgrid="true"
     inkscape:zoom="4.1776837"
     inkscape:cx="102.09006"
     inkscape:cy="68.937722"
     inkscape:window-width="1920"
     inkscape:window-height="1009"
     inkscape:window-x="1912"
     inkscape:window-y="-8"
     inkscape:window-maximized="1"
     inkscape:current-layer="layer2"><inkscape:grid
       type="xygrid"
       id="grid5447" /></sodipodi:namedview><defs
     id="defs5319"><clipPath
       clipPathUnits="userSpaceOnUse"
       id="clipPath4685"><circle
         style="fill:#e3b913;fill-opacity:1;stroke:#000000;stroke-width:5.44709;stroke-linejoin:miter;stroke-dasharray:none;stroke-dashoffset:0;stroke-opacity:1"
         id="circle4687"
         cx="64.169258"
         cy="63.830742"
         r="61.209633" /></clipPath></defs><g
     inkscape:label="Body"
     inkscape:groupmode="layer"
     id="layer1"><circle
       style="fill:#e3b913;fill-opacity:1;stroke:#000000;stroke-width:4.25999;stroke-linejoin:miter;stroke-dasharray:none;stroke-dashoffset:0;stroke-opacity:1"
       id="circle4671"
       cx="64"
       cy="64"
       r="47.870007" /><ellipse
       style="fill:#ece5a4;fill-opacity:1;stroke:none;stroke-width:3.77441;stroke-linejoin:round;stroke-dasharray:none;paint-order:markers fill stroke"
       id="path3936"
       cx="64"
       cy="123.84676"
       rx="82.065292"
       ry="51.067253"
       inkscape:label="path3936"
       clip-path="url(#clipPath4685)"
       transform="matrix(0.74541264,0,0,0.74132074,16.170264,17.045572)" /></g><g
     inkscape:groupmode="layer"
     id="layer2"
     inkscape:label="Face"><g
       aria-label="⊙ o ⊙"
       id="text915"
       style="font-size:19.3184px;font-family:Arial;-inkscape-font-specification:Arial;fill:#d15c9d;stroke:#000000;stroke-width:2.3462;stroke-linejoin:round;paint-order:markers fill stroke"><path
         d="m 45.450099,69.952404 q -2.4148,0 -4.122139,-1.697907 -1.697906,-1.707339 -1.697906,-4.122139 0,-2.4148 1.697906,-4.112706 1.707339,-1.707339 4.122139,-1.707339 2.4148,0 4.112706,1.707339 1.707339,1.697906 1.707339,4.112706 0,2.4148 -1.707339,4.122139 -1.697906,1.697907 -4.112706,1.697907 z m 0,-0.933849 q 2.028054,0 3.452409,-1.433787 1.433787,-1.433788 1.433787,-3.45241 0,-2.028054 -1.433787,-3.452409 -1.424355,-1.433787 -3.452409,-1.433787 -2.028055,0 -3.461842,1.433787 -1.424355,1.424355 -1.424355,3.452409 0,2.018622 1.433787,3.45241 1.433788,1.433787 3.45241,1.433787 z m -1.047042,-3.839154 v -2.094085 h 2.094084 v 2.094085 z"
         id="path580" /><path
         d="m 59.137109,64.70776 q 0,-2.78268 1.546981,-4.122139 1.292296,-1.113072 3.15056,-1.113072 2.065786,0 3.376946,1.358325 1.311161,1.348892 1.311161,3.735394 0,1.933726 -0.584834,3.046798 -0.575402,1.103639 -1.688473,1.716772 -1.103639,0.613133 -2.4148,0.613133 -2.103517,0 -3.405246,-1.348892 -1.292295,-1.348893 -1.292295,-3.886319 z m 1.74507,0 q 0,1.924294 0.839521,2.886441 0.83952,0.952714 2.11295,0.952714 1.263997,0 2.103517,-0.962147 0.83952,-0.962147 0.83952,-2.933605 0,-1.858264 -0.848953,-2.810978 -0.83952,-0.962147 -2.094084,-0.962147 -1.27343,0 -2.11295,0.952714 -0.839521,0.952714 -0.839521,2.877008 z"
         id="path582" /><path
         d="m 82.285227,69.952404 q -2.414799,0 -4.122138,-1.697907 -1.697907,-1.707339 -1.697907,-4.122139 0,-2.4148 1.697907,-4.112706 1.707339,-1.707339 4.122138,-1.707339 2.4148,0 4.112707,1.707339 1.707339,1.697906 1.707339,4.112706 0,2.4148 -1.707339,4.122139 -1.697907,1.697907 -4.112707,1.697907 z m 0,-0.933849 q 2.028055,0 3.45241,-1.433787 1.433787,-1.433788 1.433787,-3.45241 0,-2.028054 -1.433787,-3.452409 -1.424355,-1.433787 -3.45241,-1.433787 -2.028054,0 -3.461842,1.433787 -1.424354,1.424355 -1.424354,3.452409 0,2.018622 1.433787,3.45241 1.433788,1.433787 3.452409,1.433787 z m -1.047042,-3.839154 v -2.094085 h 2.094085 v 2.094085 z"
         id="path584" /></g></g></svg>
