<?xml version="1.0" encoding="UTF-8" standalone="no"?>
<!-- Created with Inkscape (http://www.inkscape.org/) -->

<svg
   width="128.0px"
   height="128.0px"
   viewBox="0 0 128.0 128.0"
   version="1.1"
   id="SVGRoot"
   sodipodi:docname="Ball.svg"
   xml:space="preserve"
   inkscape:version="1.2.2 (732a01da63, 2022-12-09)"
   xmlns:inkscape="http://www.inkscape.org/namespaces/inkscape"
   xmlns:sodipodi="http://sodipodi.sourceforge.net/DTD/sodipodi-0.dtd"
   xmlns="http://www.w3.org/2000/svg"
   xmlns:svg="http://www.w3.org/2000/svg"><sodipodi:namedview
     id="namedview5324"
     pagecolor="#505050"
     bordercolor="#eeeeee"
     borderopacity="1"
     inkscape:showpageshadow="0"
     inkscape:pageopacity="0"
     inkscape:pagecheckerboard="0"
     inkscape:deskcolor="#505050"
     inkscape:document-units="px"
     showgrid="true"
     inkscape:zoom="5.9081369"
     inkscape:cx="72.86561"
     inkscape:cy="60.255882"
     inkscape:window-width="1920"
     inkscape:window-height="1009"
     inkscape:window-x="1912"
     inkscape:window-y="-8"
     inkscape:window-maximized="1"
     inkscape:current-layer="layer1"><inkscape:grid
       type="xygrid"
       id="grid5447" /></sodipodi:namedview><defs
     id="defs5319" /><g
     inkscape:label="Warstwa 1"
     inkscape:groupmode="layer"
     id="layer1"><g
       inkscape:label="Warstwa 1"
       id="layer1-4"
       transform="matrix(4.003357,0,0,4.003357,-0.2042212,-0.08443845)"><circle
         style="fill:#e6d700;fill-opacity:1;stroke:#000000;stroke-width:1.36063;stroke-linejoin:miter;stroke-dasharray:none;stroke-dashoffset:0;stroke-opacity:1"
         id="path508"
         cx="16.037596"
         cy="16.007675"
         r="15.289577" /><g
         aria-label=":)"
         transform="rotate(90,1.5e-6,1.5e-6)"
         id="text2717"
         style="fill:#e6d700;stroke:#000000;stroke-width:1.36063"><path
           d="m 13.495117,-17.523438 h -1.40039 v -1.669922 h 1.40039 z m 0,4.875 h -1.40039 v -1.669922 h 1.40039 z"
           id="path4542" /><path
           d="m 19.905273,-16.000001 q 0,1.763672 -0.574218,3.169922 -0.574219,1.40625 -1.611328,2.595703 H 16.37793 v -0.05859 q 0.451172,-0.404297 0.902343,-0.990234 0.457032,-0.580078 0.802735,-1.300781 0.363281,-0.75 0.574219,-1.582032 0.216796,-0.832031 0.216796,-1.833984 0,-0.960937 -0.216796,-1.828125 -0.216797,-0.867187 -0.574219,-1.587891 -0.369141,-0.74414 -0.802735,-1.300781 -0.427734,-0.5625 -0.902343,-0.990234 v -0.05859 h 1.341797 q 1.037109,1.189453 1.611328,2.595703 0.574218,1.40625 0.574218,3.169922 z"
           id="path4544" /></g><path
         style="fill:none;fill-opacity:1;stroke:none;stroke-width:1.36063;stroke-linejoin:miter;stroke-dasharray:none;stroke-dashoffset:0;stroke-opacity:1"
         id="path2939"
         d="m 18.989648,9.7437618 c 0.332851,0.4249942 0.368055,0.4115312 0.579952,0.9608222 0.104548,0.271013 0.222329,0.542476 0.267161,0.829475 0.04832,0.309348 0.09031,0.636861 0.0091,0.939255 -0.164148,0.611481 -0.727098,0.99166 -1.160061,1.376587 -0.292657,0.139291 -0.576084,0.299915 -0.877972,0.417875 -0.537122,0.209875 -1.196617,0.365527 -1.769716,0.440952 -0.260441,0.03428 -0.523535,0.04755 -0.786099,0.0556 -0.563114,0.01726 -0.710633,-0.01344 -1.244693,-0.06691 0,0 10.925712,7.193521 10.925712,7.193521 v 0 c 0.02689,-0.334519 0.02058,-0.4347 0.116268,-0.777601 0.106804,-0.382726 0.259768,-0.745379 0.450914,-1.093927 0.120759,-0.220201 0.247135,-0.438535 0.394621,-0.641805 0.169887,-0.234144 0.370059,-0.444744 0.555088,-0.667116 0.553788,-0.425729 1.063702,-0.880817 1.734083,-1.129544 0.394435,-0.146345 0.81574,-0.208921 1.229455,-0.285313 0.361321,-0.06672 0.728074,-0.09989 1.092905,-0.14351 0.812105,-0.09709 0.546711,-0.08444 1.256641,-0.04122 0,0 -12.773395,-7.3671412 -12.773395,-7.3671412 z" /></g></g></svg>
