<?xml version="1.0" encoding="UTF-8" standalone="no"?>
<!-- Created with Inkscape (http://www.inkscape.org/) -->

<svg
   width="128.0px"
   height="128.0px"
   viewBox="0 0 128.0 128.0"
   version="1.1"
   id="SVGRoot"
   sodipodi:docname="IceOrb.svg"
   xml:space="preserve"
   inkscape:version="1.2.2 (732a01da63, 2022-12-09)"
   xmlns:inkscape="http://www.inkscape.org/namespaces/inkscape"
   xmlns:sodipodi="http://sodipodi.sourceforge.net/DTD/sodipodi-0.dtd"
   xmlns="http://www.w3.org/2000/svg"
   xmlns:svg="http://www.w3.org/2000/svg"><sodipodi:namedview
     id="namedview5324"
     pagecolor="#505050"
     bordercolor="#eeeeee"
     borderopacity="1"
     inkscape:showpageshadow="0"
     inkscape:pageopacity="0"
     inkscape:pagecheckerboard="0"
     inkscape:deskcolor="#505050"
     inkscape:document-units="px"
     showgrid="true"
     inkscape:zoom="4"
     inkscape:cx="-1.125"
     inkscape:cy="64.25"
     inkscape:window-width="1920"
     inkscape:window-height="1009"
     inkscape:window-x="1912"
     inkscape:window-y="-8"
     inkscape:window-maximized="1"
     inkscape:current-layer="layer3"><inkscape:grid
       type="xygrid"
       id="grid5447" /></sodipodi:namedview><defs
     id="defs5319"><style
       id="style1294">

      .cls-3 {
        fill: url(#linear-gradient-1);
      }

      .cls-4 {
        fill: #fc9502;
      }

      .cls-5 {
        fill: #fce202;
      }
    </style><linearGradient
       id="linear-gradient-1"
       gradientUnits="userSpaceOnUse"
       x1="94.141"
       y1="255"
       x2="94.141"
       y2="0.188"
       gradientTransform="translate(-1.280071,0.47343624)"><stop
         offset="0"
         stop-color="#ff4c0d"
         id="stop1296" /><stop
         offset="1"
         stop-color="#fc9502"
         id="stop1298" /></linearGradient><filter
       style="color-interpolation-filters:sRGB;"
       inkscape:label="Cross Blur"
       id="filter6033"
       x="-0.023484329"
       y="-0.023484329"
       width="1.0469687"
       height="1.0469687"><feColorMatrix
         in="SourceGraphic"
         values="1 0 0 0 0 0 1 0 0 0 0 0 1 0 0 -0.2125 -0.7154 -0.0721 1 0 "
         result="colormatrix"
         id="feColorMatrix6023" /><feComposite
         in="SourceGraphic"
         in2="colormatrix"
         operator="arithmetic"
         k2="1"
         k3="0"
         k4="0"
         result="composite"
         id="feComposite6025" /><feGaussianBlur
         stdDeviation="5 0.01"
         result="blur1"
         id="feGaussianBlur6027" /><feGaussianBlur
         in="composite"
         stdDeviation="0.01 5"
         result="blur2"
         id="feGaussianBlur6029" /><feBlend
         in="blur2"
         in2="blur1"
         mode="darken"
         result="blend"
         id="feBlend6031" /></filter></defs><g
     inkscape:label="Base"
     inkscape:groupmode="layer"
     id="layer1"><circle
       style="fill:#a8fbff;fill-opacity:1;stroke:#000000;stroke-width:3.91869;stroke-dasharray:none;stroke-opacity:1"
       id="path357"
       cx="64"
       cy="64"
       r="62.040653" /><g
       id="g5552"
       transform="matrix(0.21181827,0,0,0.21181827,9.7744176,9.7744176)"
       style="filter:url(#filter6033)"><path
         style="fill:#99ddff"
         d="m 512,256 c 0,-9.217 -7.479,-16.696 -16.696,-16.696 h -26.478 l 32.718,-32.718 c 6.521,-6.521 6.521,-17.087 0,-23.609 -6.521,-6.522 -17.087,-6.521 -23.609,0 l -56.327,56.327 h -83.813 c -2.168,-10.642 -6.39,-20.536 -12.197,-29.295 l 59.303,-59.303 h 79.663 c 9.217,0 16.696,-7.479 16.696,-16.696 0,-9.217 -7.479,-16.696 -16.696,-16.696 h -46.271 l 18.728,-18.728 c 6.521,-6.521 6.521,-17.087 0,-23.609 -6.521,-6.522 -17.087,-6.521 -23.609,0 l -18.727,18.728 v -46.27 c 0,-9.217 -7.479,-16.696 -16.696,-16.696 -9.217,0 -16.696,7.479 -16.696,16.696 v 79.663 L 301.991,186.4 c -8.759,-5.807 -18.652,-10.027 -29.295,-12.197 V 90.391 l 56.326,-56.326 c 6.521,-6.521 6.521,-17.087 0,-23.609 -6.521,-6.522 -17.087,-6.521 -23.609,0 L 272.696,43.173 V 16.696 C 272.696,7.479 265.217,0 256,0 246.783,0 239.304,7.479 239.304,16.696 V 43.174 L 206.586,10.457 c -6.521,-6.521 -17.087,-6.521 -23.609,0 -6.522,6.521 -6.521,17.087 0,23.609 l 56.327,56.326 v 83.813 c -10.642,2.168 -20.536,6.39 -29.295,12.197 L 150.706,127.099 V 47.435 c 0,-9.217 -7.479,-16.696 -16.696,-16.696 -9.217,0 -16.696,7.479 -16.696,16.696 V 93.706 L 98.587,74.978 c -6.521,-6.521 -17.087,-6.521 -23.609,0 -6.522,6.521 -6.521,17.087 0,23.609 l 18.728,18.728 H 47.435 c -9.217,0 -16.696,7.479 -16.696,16.696 0,9.217 7.479,16.696 16.696,16.696 h 79.663 l 59.303,59.303 c -5.807,8.759 -10.027,18.652 -12.197,29.295 H 90.391 L 34.065,182.979 c -6.521,-6.521 -17.087,-6.521 -23.609,0 -6.522,6.521 -6.521,17.087 0,23.609 l 32.717,32.717 H 16.696 C 7.479,239.304 0,246.783 0,256 c 0,9.217 7.479,16.696 16.696,16.696 h 26.478 l -32.717,32.718 c -6.521,6.521 -6.521,17.087 0,23.609 3.26,3.26 7.532,4.891 11.804,4.891 4.272,0 8.544,-1.631 11.804,-4.892 l 56.327,-56.326 h 83.813 c 2.168,10.642 6.39,20.536 12.197,29.295 l -59.303,59.303 H 47.435 c -9.217,0 -16.696,7.479 -16.696,16.696 0,9.217 7.479,16.696 16.696,16.696 h 46.271 l -18.728,18.728 c -6.521,6.521 -6.521,17.087 0,23.609 3.261,3.261 7.533,4.892 11.804,4.892 4.271,0 8.544,-1.631 11.804,-4.892 l 18.728,-18.728 v 46.271 c 0,9.217 7.479,16.696 16.696,16.696 9.217,0 16.696,-7.479 16.696,-16.696 V 384.903 L 210.009,325.6 c 8.759,5.807 18.652,10.027 29.295,12.197 v 83.813 l -56.326,56.326 c -6.521,6.521 -6.521,17.087 0,23.609 6.521,6.522 17.087,6.521 23.609,0 l 32.718,-32.718 v 26.478 c 0,9.217 7.479,16.696 16.696,16.696 9.217,0 16.696,-7.479 16.696,-16.696 v -26.478 l 32.718,32.718 c 3.261,3.261 7.533,4.892 11.804,4.892 4.271,0 8.544,-1.631 11.804,-4.892 6.521,-6.521 6.521,-17.087 0,-23.609 l -56.326,-56.327 v -83.813 c 10.642,-2.168 20.536,-6.39 29.295,-12.197 l 59.303,59.303 v 79.663 c 0,9.217 7.479,16.696 16.696,16.696 9.217,0 16.696,-7.479 16.696,-16.696 v -46.271 l 18.728,18.728 c 3.261,3.261 7.533,4.892 11.804,4.892 4.271,0 8.544,-1.631 11.804,-4.892 6.521,-6.521 6.521,-17.087 0,-23.609 l -18.727,-18.727 h 46.271 c 9.217,0 16.696,-7.479 16.696,-16.696 0,-9.217 -7.479,-16.696 -16.696,-16.696 H 384.904 L 325.6,301.991 c 5.807,-8.759 10.027,-18.652 12.197,-29.295 h 83.813 l 56.326,56.326 c 3.261,3.261 7.533,4.892 11.804,4.892 4.271,0 8.544,-1.631 11.804,-4.892 6.521,-6.521 6.521,-17.087 0,-23.609 l -32.717,-32.717 h 26.478 C 504.521,272.696 512,265.217 512,256 Z m -256,50.087 c -27.619,0 -50.087,-22.468 -50.087,-50.087 0,-27.619 22.468,-50.087 50.087,-50.087 27.619,0 50.087,22.468 50.087,50.087 0,27.619 -22.468,50.087 -50.087,50.087 z"
         id="path5541" /><path
         style="fill:#73c0e6"
         d="m 306.087,256 c 0,27.619 -22.468,50.087 -50.087,50.087 V 512 c 9.217,0 16.696,-7.479 16.696,-16.696 v -26.478 l 32.718,32.718 c 3.261,3.261 7.533,4.892 11.804,4.892 4.271,0 8.544,-1.631 11.804,-4.892 6.521,-6.521 6.521,-17.087 0,-23.609 l -56.326,-56.327 v -83.813 c 10.642,-2.168 20.536,-6.39 29.295,-12.197 l 59.303,59.303 v 79.663 c 0,9.217 7.479,16.696 16.696,16.696 9.217,0 16.696,-7.479 16.696,-16.696 v -46.271 l 18.728,18.728 c 3.261,3.261 7.533,4.892 11.804,4.892 4.271,0 8.544,-1.631 11.804,-4.892 6.521,-6.521 6.521,-17.087 0,-23.609 l -18.727,-18.727 h 46.271 c 9.217,0 16.696,-7.479 16.696,-16.696 0,-9.217 -7.479,-16.696 -16.696,-16.696 H 384.903 L 325.6,301.991 c 5.807,-8.759 10.027,-18.652 12.197,-29.295 h 83.813 l 56.326,56.326 c 3.261,3.261 7.533,4.892 11.804,4.892 4.271,0 8.544,-1.631 11.804,-4.892 6.521,-6.521 6.521,-17.087 0,-23.609 l -32.717,-32.717 h 26.478 c 9.217,0 16.696,-7.479 16.696,-16.696 0,-9.217 -7.479,-16.696 -16.696,-16.696 h -26.478 l 32.718,-32.718 c 6.521,-6.521 6.521,-17.087 0,-23.609 -6.521,-6.522 -17.087,-6.521 -23.609,0 l -56.327,56.327 h -83.813 c -2.168,-10.642 -6.39,-20.536 -12.197,-29.295 l 59.303,-59.303 h 79.663 c 9.217,0 16.696,-7.479 16.696,-16.696 0,-9.217 -7.479,-16.696 -16.696,-16.696 h -46.271 l 18.728,-18.728 c 6.521,-6.521 6.521,-17.087 0,-23.609 -6.521,-6.522 -17.087,-6.521 -23.609,0 l -18.727,18.728 v -46.27 c 0,-9.217 -7.479,-16.696 -16.696,-16.696 -9.217,0 -16.696,7.479 -16.696,16.696 v 79.663 L 301.991,186.4 c -8.759,-5.807 -18.652,-10.027 -29.295,-12.197 V 90.391 l 56.326,-56.326 c 6.521,-6.521 6.521,-17.087 0,-23.609 -6.521,-6.522 -17.087,-6.521 -23.609,0 L 272.696,43.173 V 16.696 C 272.696,7.479 265.217,0 256,0 v 205.913 c 27.619,0 50.087,22.468 50.087,50.087 z"
         id="path5543" /></g></g><g
     inkscape:groupmode="layer"
     id="layer3"
     inkscape:label="Face"><g
       aria-label=":|"
       transform="rotate(90)"
       id="text5608"
       style="font-size:48.8691px;fill:#000000;stroke:#000000;stroke-width:9.16293;fill-opacity:1"><path
         d="m 56.149445,-69.965468 h -5.702986 v -6.800631 h 5.702986 z m 0,19.853072 h -5.702986 v -6.800632 h 5.702986 z"
         id="path7872"
         style="fill:#000000;fill-opacity:1" /><path
         d="m 77.553538,-40.758545 h -4.151965 v -46.482913 h 4.151965 z"
         id="path7874"
         style="fill:#000000;fill-opacity:1" /></g></g></svg>
